# xmcd
#
# Track frame offsets:
#	150
#	12105
#	20537
#	38362
#	53322
#	71685
#	81700
#	94072
#	104582
#	121577
#	139510
#	153777
#
# Disc length: 2198 seconds
# Revision: 1
# Processed by: cddbd v1.5.2PL0 Copyright (c) Steve Scherf et al.
# Submitted via: dBpowerAMP V12.0
#
DISCID=8708940c
DTITLE=Mary McCaslin - Prairie In The Sky
DYEAR=1995
DGENRE=Country
TTITLE0=Pass Me By
TTITLE1=Priscilla Drive
TTITLE2=Ballad of Weaverville
TTITLE3=Back To Salinas
TTITLE4=Ghost Riders in the Sky
TTITLE5=Last Cannonball
TTITLE6=It's My Time
TTITLE7=Cornerstone Cowboy
TTITLE8=Prairie in the Sky
TTITLE9=Cole Younger
TTITLE10=The Dealers
TTITLE11=My Love
EXTD=
EXTT0=
EXTT1=
EXTT2=
EXTT3=
EXTT4=
EXTT5=
EXTT6=
EXTT7=
EXTT8=
EXTT9=
EXTT10=
EXTT11=
PLAYORDER=
